<svg xmlns="http://www.w3.org/2000/svg" xmlns:xlink="http://www.w3.org/1999/xlink" fill="none" version="1.1" width="75" height="25" viewBox="0 0 75 25"><defs><clipPath id="master_svg0_446_70543"><rect x="0" y="0" width="75" height="25" rx="0"/></clipPath></defs><g clip-path="url(#master_svg0_446_70543)"><g><g><path d="M4.61906,21.171153735351563C3.79612,21.171153735351563,3.03292,20.983653735351563,2.32944,20.608653735351563C1.62596,20.233663735351563,1.06185,19.69090373535156,0.637112,18.980373735351563C0.212371,18.269843735351564,0,17.414583735351563,0,16.414583735351563C0,15.519843735351563,0.149323,14.697483735351563,0.447969,13.947483735351563C0.746615,13.197483735351563,1.16804,12.546163735351563,1.71224,11.993533735351562C2.25644,11.440903735351563,2.88691,11.009979735351562,3.60366,10.700769735351562C4.32041,10.391558735351563,5.09026,10.236953735351562,5.91319,10.236953735351562C6.8025,10.236953735351562,7.5657,10.401427735351563,8.20281,10.730374735351562C8.83992,11.059321735351563,9.31444,11.569193735351563,9.62636,12.259983735351563C9.93828,12.950773735351563,10.0478,13.842213735351562,9.95487,14.934323735351562C9.8885,16.184323735351562,9.62968,17.279713735351564,9.17839,18.220503735351564C8.7271,19.161293735351563,8.11986,19.88827373535156,7.35665,20.401453735351563C6.59344,20.91455373535156,5.68091,21.171153735351563,4.61906,21.171153735351563ZM5.57473,18.62511373535156C6.18529,18.62511373535156,6.72617,18.477083735351563,7.19737,18.181033735351562C7.66857,17.88497373535156,8.04022,17.477083735351563,8.31232,16.957343735351564C8.58442,16.43761373535156,8.72047,15.829053735351563,8.72047,15.131693735351561C8.72047,14.434323735351562,8.50478,13.835633735351562,8.0734,13.414583735351563C7.64202,12.993533735351562,7.04141,12.783003735351564,6.27157,12.783003735351564C5.67428,12.783003735351564,5.13671,12.931033735351562,4.65888,13.227083735351563C4.18104,13.523133735351562,3.80608,13.931033735351562,3.53398,14.450763735351561C3.26188,14.970503735351564,3.12583,15.579053735351563,3.12583,16.276423735351564C3.12583,16.973793735351563,3.34152,17.57247373535156,3.77289,17.993533735351562C4.20427,18.414583735351563,4.80488,18.62511373535156,5.57473,18.62511373535156ZM7.70507,21.009953735351562L8.12317,18.898133735351564L8.82001,15.740243735351562L9.23812,12.582343735351563L9.67613,10.391557735351563L12.7821,10.391557735351563L10.6517,21.009953735351562L7.70507,21.009953735351562Z" fill="#FFFFFF" fill-opacity="0.8999999761581421"/></g><g><path d="M19.17402,21.171153735351563C18.07235,21.171153735351563,17.11336,20.973753735351565,16.297060000000002,20.579053735351565C15.48076,20.184323735351562,14.84697,19.63169373535156,14.395682,18.921163735351563C13.944394,18.210633735351564,13.71875,17.37511373535156,13.71875,16.414583735351563C13.71875,15.230373735351563,13.997486,14.174453735351562,14.554959,13.246823735351562C15.11243,12.319193735351563,15.88228,11.585633735351562,16.86449,11.046163735351563C17.8467,10.506690735351562,18.97492,10.236953735351562,20.24915,10.236953735351562C21.39064,10.236953735351562,22.37949,10.470505735351562,23.2157,10.937611735351563C24.051949999999998,11.404713735351562,24.669150000000002,12.065903735351563,25.067349999999998,12.921163735351563L22.43922,14.223793735351563C22.21357,13.723793735351563,21.898339999999997,13.358663735351563,21.49351,13.128403735351561C21.08867,12.898133735351562,20.60752,12.783003735351564,20.05005,12.783003735351564C19.43948,12.783003735351564,18.89529,12.931033735351562,18.41745,13.227083735351563C17.939619999999998,13.523133735351562,17.561329999999998,13.931033735351562,17.2826,14.450773735351563C17.00386,14.970503735351564,16.86449,15.572483735351563,16.86449,16.25669373535156C16.86449,16.980373735351563,17.08018,17.556033735351562,17.51156,17.983663735351563C17.94294,18.411293735351563,18.556820000000002,18.62511373535156,19.35321,18.62511373535156C19.89741,18.62511373535156,20.39515,18.50998373535156,20.84644,18.279713735351564C21.29773,18.049453735351562,21.676009999999998,17.69090373535156,21.981299999999997,17.20406373535156L24.27095,18.62511373535156C23.766550000000002,19.427743735351562,23.066380000000002,20.052743735351562,22.17044,20.50015373535156C21.2745,20.947453735351562,20.2757,21.171153735351563,19.17402,21.171153735351563Z" fill="#FFFFFF" fill-opacity="0.8999999761581421"/></g></g><g><g><path d="M53.139727133789066,21.171426342773437C52.263697133789066,21.171426342773437,51.507137133789065,20.983926342773437,50.87001713378906,20.608926342773437C50.23291013378906,20.233946342773436,49.781622133789064,19.68459634277344,49.51615813378906,18.960916342773437C49.250693933789066,18.237236342773436,49.22414703378906,17.342496342773437,49.43651713378906,16.276706342773437L50.61118713378906,10.395127597603437L53.717107133789064,10.395127597603437L52.582257133789064,16.079336342773438C52.42297713378906,16.855656342773436,52.486027133789065,17.454336342773438,52.771397133789065,17.87538634277344C53.05677713378906,18.296446342773436,53.564467133789066,18.50696634277344,54.294497133789065,18.50696634277344C55.06433713378906,18.50696634277344,55.711407133789066,18.283286342773437,56.23569713378906,17.835916342773437C56.75998713378906,17.388546342773438,57.108407133789065,16.704336342773438,57.28095713378906,15.783286342773437L58.37598713378906,10.395126342773438L61.48193713378906,10.395126342773438L59.351537133789066,21.01352634277344L56.40492713378906,21.01352634277344L57.00221713378906,18.013546342773438L57.44023713378906,18.921446342773436C56.935857133789064,19.697756342773438,56.30538713378906,20.266836342773438,55.548817133789065,20.628726342773437C54.79224713378906,20.990526342773435,53.98921713378906,21.171426342773437,53.139727133789066,21.171426342773437Z" fill="#FFFFFF" fill-opacity="0.8999999761581421"/></g><g><path d="M62.975194633789066,24.999820092773437C62.43099463378906,24.999820092773437,61.89011463378906,24.914220092773437,61.35255463378906,24.743220092773438C60.81498963378906,24.57212009277344,60.386927633789064,24.348420092773438,60.06837463378906,24.07212009277344L61.501874633789065,21.861620092773435C61.72751463378906,22.059020092773437,61.983024633789064,22.216920092773435,62.26840463378906,22.335320092773436C62.55377463378906,22.453720092773438,62.869014633789064,22.512920092773438,63.214114633789066,22.512920092773438C63.61231463378906,22.512920092773438,63.96073463378906,22.414220092773437,64.25937463378907,22.216920092773435C64.55802463378906,22.019520092773437,64.85334463378906,21.684020092773437,65.14535463378907,21.210320092773436L66.00147463378906,19.868200092773435L66.28021463378906,19.552410092773435L71.93457463378905,10.394511522773438L75.00067463378906,10.394511522773438L67.87299463378906,21.723420092773438C67.34206463378906,22.55242009277344,66.83436463378906,23.207020092773437,66.34990463378907,23.687320092773437C65.86542463378906,24.167520092773437,65.35441463378906,24.506320092773436,64.81685463378906,24.703720092773438C64.27929463378906,24.90112009277344,63.665404633789066,24.999820092773437,62.975194633789066,24.999820092773437ZM65.34445463378907,21.424120092773435L62.776094633789064,10.391220092773438L65.88201463378907,10.391220092773438L67.83317463378906,19.272800092773437L65.34445463378907,21.424120092773435Z" fill="#FFFFFF" fill-opacity="0.8999999761581421"/></g></g><g><g><path d="M46.933899133300784,10.910647442626953L46.73479913330078,12.318547442626953C45.98819913330078,17.594847442626953,41.18659913330078,22.068547442626954,35.84418913330078,22.216547442626954C30.50173913330078,22.364547442626954,26.397017133300782,17.969847442626953,27.16686023330078,12.535647442626953L28.66340913330078,1.9665274426269532C28.819369133300782,0.8777154426269531,29.83476913330078,-0.007152557373046875,30.93311913330078,-0.007152557373046875C32.03147913330078,-0.007152557373046875,32.79799913330078,0.8777154426269531,32.64535913330078,1.9665274426269532L31.172039133300782,12.357947442626953C30.68756913330078,15.769147442626954,33.11655913330078,18.525747442626955,36.58748913330078,18.25274744262695C39.59389913330078,18.019147442626952,42.29489913330078,15.542147442626954,42.71969913330078,12.535647442626953L42.95199913330078,10.907347442626953C43.107899133300776,9.818507442626952,44.123299133300776,8.933637442626953,45.22169913330078,8.933637442626953C46.31999913330078,8.933637442626953,47.08659913330078,9.818507442626952,46.933899133300784,10.907347442626953L46.933899133300784,10.910647442626953Z" fill="#FFFFFF" fill-opacity="1"/></g><g><path d="M47.795812258300785,5.118871192626953C47.63985225830078,6.207691192626953,46.62445225830078,7.0925611926269525,45.52610225830078,7.0925611926269525C44.42775025830078,7.0925611926269525,43.66122625830078,6.207691192626953,43.81386435830078,5.118871192626953C43.96982425830078,4.030060192626953,44.98522225830078,3.145191192626953,46.083572258300784,3.145191192626953C47.18192225830078,3.145191192626953,47.94845225830078,4.030060192626953,47.795812258300785,5.118871192626953Z" fill="#FFFFFF" fill-opacity="1"/></g><g><path d="M40.65882288330078,13.341527442626953C40.50286288330078,14.430347442626953,39.48746288330078,15.315217442626953,38.38911288330078,15.315217442626953L34.73899288330078,15.315217442626953C33.64064088330078,15.315217442626953,32.87411388330078,14.430347442626953,33.02675498330078,13.341527442626953C33.18271488330078,12.252715442626954,34.19811288330078,11.367847442626953,35.296462883300784,11.367847442626953L38.94658288330078,11.367847442626953C40.04493288330078,11.367847442626953,40.811462883300784,12.252715442626954,40.65882288330078,13.341527442626953Z" fill="#FFFFFF" fill-opacity="1"/></g><g><path d="M41.32679163330078,7.988011817626953C41.17083163330078,9.076831817626953,40.15543163330078,9.961701817626953,39.05708163330078,9.961701817626953L35.40696163330078,9.961701817626953C34.30860963330078,9.961701817626953,33.54208263330078,9.076831817626953,33.69472373330078,7.988011817626953C33.85068363330078,6.899199817626953,34.86608163330078,6.014331817626953,35.964431633300784,6.014331817626953L39.61455163330078,6.014331817626953C40.71290163330078,6.014331817626953,41.479431633300784,6.899199817626953,41.32679163330078,7.988011817626953Z" fill="#FFFFFF" fill-opacity="1"/></g></g></g></svg>